<svg width="12" height="24" viewBox="0 0 12 24" fill="none" xmlns="http://www.w3.org/2000/svg">
<path d="M7.38448 17.8973V15.1181C7.38448 14.192 7.40491 13.2659 7.37467 12.3389C7.36159 11.9302 7.51199 11.8272 7.89045 11.8362C8.73401 11.8567 9.57839 11.8403 10.4244 11.8428C10.6639 11.8428 10.8699 11.7986 10.8936 11.5109C10.9811 10.427 11.0571 9.34313 11.1511 8.26007C11.1813 7.90368 11.0481 7.76962 10.6893 7.77943C9.76395 7.79578 8.83701 7.76554 7.91007 7.79169C7.51118 7.80314 7.34933 7.70995 7.37467 7.27672C7.41145 6.65222 7.38284 6.02446 7.38448 5.39669C7.38448 4.51225 7.82915 4.06023 8.70622 4.05369C9.3863 4.04879 10.068 4.0398 10.7497 4.05369C11.0963 4.06269 11.2402 3.94907 11.2336 3.58532C11.2168 2.54994 11.2168 1.51456 11.2336 0.479178C11.2385 0.125241 11.1135 -0.00554275 10.7579 0.00017909C9.76395 0.0148924 8.76998 -0.00718036 7.77601 0.00753295C7.15233 0.015707 6.51803 -0.0014625 5.90742 0.105618C4.05518 0.43258 2.59774 2.11644 2.53317 3.99239C2.49557 5.10815 2.50865 6.22554 2.51764 7.34376C2.51764 7.68216 2.40157 7.79823 2.06479 7.78434C1.52122 7.76063 0.975192 7.78434 0.429982 7.77535C0.144707 7.77044 2.68369e-05 7.87343 0.00166165 8.17751C0.0082009 9.26711 0.0106531 10.3559 0.00166165 11.4471C0.00166165 11.734 0.127541 11.8379 0.394016 11.837C0.88446 11.837 1.3749 11.837 1.86535 11.837C2.51192 11.837 2.51273 11.837 2.51273 12.491C2.51273 16.142 2.51437 19.7912 2.51764 23.4385C2.51764 23.9772 2.52908 23.9878 3.06694 23.9886C4.30612 23.9886 5.54531 23.9886 6.7845 23.9886C7.38121 23.9886 7.38529 23.9821 7.38611 23.4001L7.38448 17.8973Z" fill="#FAFAFA"/>
<path d="M7.38448 17.8971V23.4113C7.38448 23.9933 7.37958 23.999 6.78287 23.9998C5.54369 23.9998 4.3045 23.9998 3.06531 23.9998C2.52746 23.9998 2.51601 23.9884 2.51601 23.4497C2.51274 19.7986 2.51111 16.1495 2.51111 12.5022C2.51111 11.8483 2.51111 11.8483 1.86372 11.8483C1.37328 11.8483 0.882835 11.8434 0.392391 11.8483C0.125917 11.8483 -0.00241774 11.7453 3.44779e-05 11.4584C0.00902595 10.3688 0.00657373 9.27998 3.44779e-05 8.18875C3.44779e-05 7.88467 0.143082 7.78005 0.428357 7.78659C0.97275 7.79558 1.51878 7.77187 2.06317 7.79558C2.39994 7.80948 2.51928 7.6934 2.51601 7.355C2.50702 6.23924 2.49394 5.12184 2.53154 4.00363C2.59612 2.12359 4.05355 0.439734 5.9058 0.116858C6.5164 0.00977793 7.15071 0.0269475 7.77439 0.0187734C8.76835 0.00406007 9.76232 0.0261229 10.7563 0.0114095C11.1119 0.0056877 11.2369 0.136482 11.232 0.490418C11.2173 1.5258 11.2173 2.56118 11.232 3.59656C11.2377 3.96031 11.0947 4.07393 10.7481 4.06494C10.068 4.04695 9.38631 4.05594 8.7046 4.06494C7.82752 4.07147 7.38448 4.52349 7.38285 5.40793C7.38285 6.03406 7.40982 6.66183 7.37304 7.28796C7.3477 7.71955 7.50955 7.81438 7.90844 7.80293C8.83375 7.77678 9.76069 7.80702 10.6876 7.79067C11.0465 7.78413 11.1781 7.91492 11.1495 8.27131C11.0563 9.35437 10.9794 10.4383 10.892 11.5221C10.8683 11.8099 10.6623 11.854 10.4228 11.854C9.5784 11.854 8.73402 11.8679 7.88882 11.8475C7.51037 11.8385 7.35996 11.9406 7.37304 12.3502C7.40329 13.2755 7.38285 14.2016 7.38285 15.1293V17.9085L7.38448 17.8971Z" fill="#FAFAFA"/>
</svg>
