<svg width="25" height="24" viewBox="0 0 25 24" fill="none" xmlns="http://www.w3.org/2000/svg">
<path d="M0.0350348 12.0017C0.0350348 10.1748 -0.0562529 8.34234 0.0558841 6.52222C0.23057 3.69062 1.72892 1.70653 4.30187 0.540645C5.18263 0.141685 6.12537 0.00194095 7.09121 0.00250445C10.3702 0.00250445 13.6493 -0.00313057 16.9288 0.00250445C20.3341 0.010957 23.0896 2.18269 23.8374 5.46284C23.9522 6.0029 24.0075 6.55391 24.0025 7.10601C24.0171 10.3664 24.019 13.6269 24.0081 16.8873C24.0014 20.0908 22.1328 22.6914 19.144 23.6735C18.4266 23.9091 17.6851 23.997 16.9317 23.997C13.6526 23.997 10.3731 24.0038 7.09403 23.997C3.79529 23.988 1.07582 21.9357 0.256491 18.8054C0.0925116 18.18 0.0372887 17.5128 0.0243281 16.8636C-0.00779151 15.243 0.0136214 13.6218 0.0136214 12.0012L0.0350348 12.0017ZM2.42203 11.9724C2.42203 13.6776 2.41527 15.3822 2.4271 17.0868C2.42154 17.4795 2.45934 17.8716 2.5398 18.256C3.01709 20.2801 4.71887 21.5886 6.86807 21.5886C10.2964 21.5935 13.7248 21.5923 17.1531 21.5852C17.5271 21.5887 17.9003 21.5498 18.2655 21.4691C20.2867 20.989 21.5946 19.3025 21.5997 17.1702C21.6076 13.7234 21.6076 10.2763 21.5997 6.82877C21.6035 6.46408 21.5657 6.10015 21.487 5.74402C21.0069 3.71542 19.3113 2.41429 17.1599 2.41148C13.7315 2.40697 10.3032 2.40828 6.87483 2.41542C6.50077 2.41047 6.12738 2.44829 5.76191 2.52812C3.74626 3.00372 2.43724 4.69704 2.42879 6.82708C2.41639 8.54407 2.42203 10.2582 2.42203 11.9724Z" fill="#FAFAFA"/>
<path d="M12.0067 5.99414C15.3082 5.99414 18.0159 8.69388 18.0187 11.996C18.0215 15.2981 15.3172 18.0058 12.0163 18.0086C8.71525 18.0114 6.00706 15.3038 6.00537 12.0056C6.00368 8.7074 8.70455 5.99696 12.0067 5.99414ZM12.0067 8.40255C10.0344 8.40255 8.41434 10.0288 8.41209 11.9977C8.40983 13.9666 10.0327 15.5934 12.0005 15.6002C13.9772 15.6064 15.6153 13.966 15.6069 11.9898C15.6041 10.0215 13.975 8.40255 12.0078 8.40255H12.0067Z" fill="#FAFAFA"/>
<path d="M19.8168 5.70309C19.8118 6.10036 19.6524 6.4801 19.3725 6.76203C19.0926 7.04396 18.714 7.20598 18.3168 7.21385C17.9147 7.21045 17.5302 7.04892 17.2463 6.76419C16.9624 6.47947 16.802 6.09445 16.7998 5.69239C16.8084 5.29529 16.9712 4.91711 17.2537 4.63789C17.5362 4.35866 17.9162 4.20029 18.3134 4.19629C18.7107 4.2027 19.0899 4.36361 19.3705 4.64491C19.6512 4.92621 19.8113 5.30576 19.8168 5.70309Z" fill="#FAFAFA"/>
</svg>
