<svg width="24" height="24" viewBox="0 0 24 24" fill="none" xmlns="http://www.w3.org/2000/svg">
<path d="M23.8848 24V23.7737C23.8848 20.7226 23.914 17.6714 23.8638 14.6235C23.8401 13.5779 23.7124 12.5373 23.4824 11.517C23.1404 9.95524 22.2588 8.76847 20.7116 8.17349C19.6017 7.7476 18.4455 7.66497 17.2791 7.76159C16.1349 7.85948 15.0912 8.24723 14.2216 9.01446C13.8796 9.3164 13.5974 9.68635 13.2636 10.0525V8.0184H8.4651V23.9924H13.2675V23.6923C13.2675 21.5426 13.2528 19.3921 13.2719 17.2424C13.2802 16.3137 13.2872 15.3761 13.4187 14.4601C13.5859 13.2962 14.1815 12.3949 15.4077 12.0923C15.7793 12.0122 16.1593 11.9787 16.5392 11.9925C17.6166 12.0039 18.3279 12.529 18.6851 13.5486C18.9546 14.319 18.9941 15.1218 18.9947 15.9278C18.9947 18.5226 18.9947 21.1173 18.9947 23.712C18.9947 23.8036 19.0055 23.8958 19.0119 23.9987L23.8848 24ZM5.31607 8.02666H0.385311V23.9879H5.31607V8.02666ZM2.92983 5.82412C4.51388 5.81776 5.8424 4.47463 5.82714 2.89503C5.81188 1.30081 4.4732 -0.021351 2.89678 0.000261256C1.28921 0.0218735 -0.013247 1.33513 0.000101698 2.92808C0.0119164 3.6983 0.32543 4.43315 0.873264 4.97469C1.4211 5.51622 2.15952 5.82121 2.92983 5.82412Z" fill="#FAFAFA"/>
<path d="M23.8848 23.9999H19.0106C19.0043 23.8969 18.9935 23.8047 18.9935 23.7132C18.9935 21.1185 18.9935 18.5237 18.9935 15.929C18.9935 15.123 18.9534 14.3202 18.6839 13.5497C18.3267 12.5327 17.6154 12.0051 16.5379 11.9937C16.1581 11.9798 15.778 12.0133 15.4065 12.0935C14.1809 12.396 13.5847 13.2974 13.4175 14.4613C13.2859 15.3772 13.2789 16.3148 13.2707 17.2435C13.2516 19.3933 13.2656 21.5437 13.2662 23.6935V23.9935H8.46387V8.01956H13.2624V10.0537C13.5961 9.68752 13.8784 9.31756 14.2203 9.01562C15.0899 8.24839 16.1343 7.86064 17.2778 7.76275C18.4474 7.66296 19.6037 7.74877 20.7104 8.17466C22.2576 8.76963 23.1392 9.95448 23.4812 11.5182C23.7112 12.5384 23.8389 13.5791 23.8626 14.6246C23.9128 17.6758 23.8823 20.7269 23.8835 23.7749L23.8848 23.9999Z" fill="#FAFAFA"/>
<path d="M5.31602 8.02637V23.9876H0.385254V8.02637H5.31602Z" fill="#FAFAFA"/>
<path d="M2.92983 5.82412C2.15952 5.82121 1.4211 5.51622 0.873264 4.97468C0.32543 4.43315 0.0119164 3.6983 0.000101698 2.92808C-0.013247 1.33894 1.28921 0.0218735 2.89678 0.000261256C4.4732 -0.021351 5.81189 1.30081 5.82714 2.89503C5.8424 4.47336 4.51388 5.81776 2.92983 5.82412Z" fill="#FAFAFA"/>
</svg>
