<svg width="21" height="24" viewBox="0 0 21 24" fill="none" xmlns="http://www.w3.org/2000/svg">
<path d="M20.5342 9.70997C20.3381 9.72902 20.1412 9.73901 19.9441 9.7399C18.8803 9.74005 17.8331 9.47527 16.8972 8.96947C15.9613 8.46367 15.1661 7.73276 14.5833 6.84273V16.7083C14.5833 18.1505 14.1557 19.5603 13.3545 20.7594C12.5533 21.9585 11.4145 22.8931 10.0821 23.445C8.74969 23.9968 7.28358 24.1412 5.86914 23.8599C4.45469 23.5785 3.15544 22.8841 2.13568 21.8643C1.11592 20.8446 0.421461 19.5453 0.140111 18.1309C-0.14124 16.7164 0.00315876 15.2503 0.555048 13.9179C1.10694 12.5855 2.04153 11.4467 3.24064 10.6455C4.43974 9.84431 5.84952 9.41666 7.29167 9.41666C7.44388 9.41666 7.59268 9.43034 7.74232 9.43975V13.033C7.59268 13.015 7.44559 12.9877 7.29167 12.9877C6.30467 12.9877 5.35808 13.3798 4.66016 14.0777C3.96224 14.7756 3.57016 15.7222 3.57016 16.7092C3.57016 17.6962 3.96224 18.6428 4.66016 19.3407C5.35808 20.0386 6.30467 20.4307 7.29167 20.4307C9.3474 20.4307 11.1628 18.8111 11.1628 16.7554L11.1987 0H14.6364C14.7934 1.49364 15.4705 2.88455 16.5492 3.92952C17.628 4.97449 19.0397 5.60702 20.5376 5.71653V9.70997" fill="#FAFAFA"/>
</svg>
