<svg width="35" height="24" viewBox="0 0 35 24" fill="none" xmlns="http://www.w3.org/2000/svg">
<path d="M0 16.4549V6.31763C0.0668774 5.75719 0.123723 5.19542 0.208657 4.63767C0.514955 2.626 1.57563 1.24832 3.56055 0.617671C4.88826 0.203084 6.27189 -0.00465961 7.66281 0.00173341C14.2351 -0.00629188 20.8075 0.0135494 27.3803 0.0612552C28.5717 0.0718688 29.7521 0.290025 30.8686 0.705946C32.2677 1.22224 33.224 2.16923 33.6834 3.60174C34.0366 4.70321 34.1402 5.84413 34.1516 6.98573C34.1783 10.0086 34.1877 13.0321 34.1516 16.0543C34.1369 17.4199 33.9704 18.7762 33.5076 20.0796C32.917 21.7416 31.7855 22.8397 30.1135 23.3921C28.8128 23.8221 27.4652 23.9746 26.1089 23.9799C20.5033 24.002 14.8976 23.9953 9.29194 24C7.76579 24 6.24835 23.9184 4.76702 23.5131C3.38132 23.1339 2.1695 22.4805 1.32818 21.2681C0.680142 20.3318 0.377185 19.2731 0.205979 18.1683C0.121714 17.5998 0.0702212 17.026 0 16.4549ZM13.1554 11.8517C13.1554 13.0408 13.1488 14.2299 13.1554 15.4183C13.1628 16.4482 13.9747 16.9398 14.8882 16.4736C15.5804 16.1212 16.2666 15.7567 16.9554 15.3969C18.5685 14.5542 20.182 13.7123 21.796 12.8709C22.2467 12.6362 22.5283 12.3058 22.5062 11.7708C22.4855 11.2786 22.1953 10.989 21.7846 10.7763C19.4979 9.59306 17.2122 8.40821 14.9277 7.22181C13.974 6.72825 13.1601 7.21579 13.1541 8.28449C13.1528 9.47357 13.1575 10.6626 13.1575 11.8517H13.1554Z" fill="#FAFAFA"/>
</svg>
